<svg xmlns="http://www.w3.org/2000/svg" viewBox="0 0 24 24" stroke-width="2" fill="none" color="#000000">
  <!-- Frame from first SVG -->
  <path d="M21 13V19C21 20.1046 20.1046 21 19 21H5C3.89543 21 3 20.1046 3 19V5C3 3.89543 3.89543 3 5 3H11" stroke="#000000" stroke-width="2" stroke-linecap="round"></path>
  
  <!-- Pencil from second SVG - moved to top right within frame -->
  <g transform="translate(8, 2) scale(0.6)">
    <path d="M14.3632 5.65156L15.8431 4.17157C16.6242 3.39052 17.8905 3.39052 18.6716 4.17157L20.0858 5.58579C20.8668 6.36683 20.8668 7.63316 20.0858 8.41421L18.6058 9.8942M14.3632 5.65156L4.74749 15.2672C4.41542 15.5993 4.21079 16.0376 4.16947 16.5054L3.92738 19.2459C3.87261 19.8659 4.39148 20.3848 5.0115 20.33L7.75191 20.0879C8.21972 20.0466 8.65806 19.8419 8.99013 19.5099L18.6058 9.8942M14.3632 5.65156L18.6058 9.8942" stroke="#000000" stroke-width="3.33" stroke-linecap="round" stroke-linejoin="round"></path>
  </g>
</svg>
