<svg width="214" height="36" viewBox="0 0 214 36" fill="none" xmlns="http://www.w3.org/2000/svg">
<path d="M15.2861 8.9585C15.3812 9.67813 15.8629 10.3331 16.038 11.0423C16.5569 13.1428 16.7109 15.3853 16.9782 17.5274C17.2091 19.3783 17.8063 24.9158 17.8714 23.052C17.9357 21.2099 17.8187 19.3774 17.8829 17.539C17.9281 16.2444 18.3963 15.4266 19.0806 14.3447C19.9984 12.8936 21.3374 11.3071 23.3408 11.577C23.8395 11.6441 24.09 12.5114 24.2813 12.8683C24.9719 14.1568 25.42 15.5487 26.0116 16.884C26.9206 18.9356 28.0658 21.2467 28.5381 23.4444" stroke="black" stroke-width="2" stroke-linecap="round"/>
<path d="M34.7354 9.70498C31.539 9.59336 31.7786 15.4932 32.121 17.4134C32.5548 19.8465 36.4948 23.608 38.6831 20.6409C39.3285 19.7659 39.305 18.3293 39.341 17.3009C39.4047 15.4768 39.3852 14.283 38.4589 12.7118C38.0091 11.9488 37.0889 11.0316 36.3716 10.4914C36.0172 10.2246 35.2806 9.538 35.1148 9.17123" stroke="black" stroke-width="2" stroke-linecap="round"/>
<path d="M62.8912 11.8375C62.8086 10.9084 56.675 13.7174 57.7597 14.4666C57.9805 14.6191 58.3937 14.6941 58.6474 14.8037C60.268 15.504 62.0444 16.0129 63.7182 16.5646C64.4536 16.8071 65.1627 16.9927 65.8542 17.3313C66.2359 17.5183 66.607 18.1964 66.8645 18.5112C67.3166 19.0638 68.3862 20.7087 67.8189 21.486C67.4921 21.9337 66.8321 22.3287 66.303 22.4712C64.7558 22.8879 63.0243 22.8625 61.4367 22.807C59.9468 22.755 57.0773 22.9339 57.6987 20.7599" stroke="black" stroke-width="2" stroke-linecap="round"/>
<path d="M68.8604 12.877C69.4031 14.1643 69.6381 15.6392 69.8767 17.0162C70.0664 18.1114 70.5042 19.2891 70.4653 20.404" stroke="black" stroke-width="2" stroke-linecap="round"/>
<path d="M78.5039 12.1496C77.6365 12.321 77.2513 12.603 76.8192 13.386C76.3376 14.2587 75.5173 15.0462 75.4809 16.0883C75.4674 16.4752 75.4307 16.5562 75.6866 16.8092C75.8268 16.9478 76.6771 17.4424 76.8248 17.2652C77.1798 16.8394 77.8232 16.7031 78.0435 16.1514C78.5212 14.955 78.7682 14.0075 78.7041 12.6588C78.6923 12.4103 78.2981 10.4686 78.6662 11.3556C79.5625 13.5148 79.9194 15.8933 80.1452 18.2138C80.6465 23.3656 80.4981 28.8388 79.8196 33.9633C79.7807 34.2572 78.8935 34.1689 78.7226 34.1629C77.1338 34.1075 75.5766 34.0962 74.0852 33.4723C73.6901 33.3071 73.5877 32.9688 73.3976 32.5958C73.0605 31.9344 72.6823 31.3064 72.3174 30.6615C71.7447 29.6494 70.9944 28.8859 71.0355 27.7091" stroke="black" stroke-width="2" stroke-linecap="round"/>
<path d="M84.1465 10.1274C83.6244 12.8135 84.1074 15.8159 84.31 18.5371C84.367 19.3021 84.6087 20.1268 84.5442 20.8902C84.5083 21.3163 84.8333 20.1146 84.851 20.0239C85.1558 18.4557 85.4223 16.8895 85.8867 15.3675C86.1624 14.464 86.9737 13.7428 87.6833 13.1225C88.0543 12.7982 88.4569 12.394 89.0215 12.4052C89.4104 12.4129 89.5313 12.7984 89.6884 13.086C90.1557 13.9418 90.5955 14.7803 90.951 15.6832C91.6478 17.4522 93.2883 22.8881 92.5172 21.1466" stroke="black" stroke-width="2" stroke-linecap="round"/>
<path d="M68.0871 9.08375C67.8882 10.708 65.3739 9.25601 66.5431 7.97294C66.7063 7.79376 68.0641 6.79482 68.0324 7.70424C68.0246 7.92808 67.9216 8.48567 68.0219 8.65872C68.2051 8.97483 67.9742 9.37049 67.9614 9.73536" stroke="black" stroke-width="2" stroke-linecap="round"/>
<path d="M96.4033 10.207C96.3563 12.3954 96.6777 14.6207 96.8684 16.822C96.9571 17.8451 97.0489 19.0179 97.6764 19.9623" stroke="black" stroke-width="2" stroke-linecap="round"/>
<path d="M94.3222 6.52339C94.0439 6.42879 93.4128 5.37948 93.8155 5.04327C94.2804 4.65515 94.5963 4.8196 95.1283 4.92301C95.6046 5.01559 95.5492 5.89582 95.335 6.37485C95.3054 6.4411 94.0918 6.5798 93.9789 6.59182" stroke="black" stroke-width="2" stroke-linecap="round"/>
<path d="M100.881 8.31543C100.855 9.19271 101.18 10.1244 101.226 11.0118C101.305 12.5475 101.454 14.0998 101.486 15.6352C101.5 16.2796 101.616 16.8805 101.668 17.5159C101.681 17.6771 101.782 18.3014 101.922 17.8265C102.133 17.1061 101.974 16.3319 102.082 15.5957C102.216 14.678 102.429 13.7665 102.606 12.8561C102.767 12.0299 103.229 11.4293 103.734 10.7808C104.031 10.3995 104.661 9.86962 105.183 10.0336C105.503 10.134 105.758 11.0297 105.872 11.2943C106.273 12.2254 106.696 13.1846 107.147 14.0899C108.02 15.8411 108.749 18.0514 108.754 19.9874" stroke="black" stroke-width="2" stroke-linecap="round"/>
<path d="M129.274 12.4063C129.24 12.8597 129.412 13.3479 129.444 13.8027C129.522 14.9134 129.635 16.0407 129.587 17.1529C129.546 18.1029 129.11 19.548 129.463 20.4789C129.725 21.1721 130.616 19.2598 130.777 18.9588C131.625 17.3659 132.328 15.6464 133.362 14.1588C133.769 13.5724 134.938 12.6259 135.714 13.3208C136.196 13.7526 136.429 14.5273 136.636 15.1023C137.185 16.6193 137.582 18.2007 137.978 19.7599C138.262 20.8756 138.621 22.0065 138.684 23.159C138.729 23.9762 138.735 23.551 138.673 23.0011" stroke="black" stroke-width="2" stroke-linecap="round"/>
<path d="M143.205 14.4694C144.702 15.003 145.897 14.6514 147.471 14.2747C148.185 14.1038 148.996 14.1379 148.887 13.1971C148.781 12.2879 147.895 12.0152 147.145 11.8282C146.83 11.7497 145.871 11.314 145.535 11.4556C145.205 11.5948 144.91 12.0703 144.69 12.3234C144.092 13.0131 143.498 13.7183 142.966 14.4601C142.665 14.8807 141.98 15.7268 141.968 16.2961C141.952 16.9858 143.066 18.1392 143.43 18.609C144.454 19.9296 145.633 21.0757 146.801 22.2677C147.061 22.5338 147.281 22.7326 147.642 22.8225C148.083 22.9326 148.702 22.5208 149.124 22.3869C149.83 22.1634 149.682 20.7806 149.51 20.3119" stroke="black" stroke-width="2" stroke-linecap="round"/>
<path d="M153.74 13.6927C155.13 14.1902 156.241 13.8559 157.705 13.497C158.369 13.3341 159.123 13.3639 159.024 12.4794C158.929 11.6247 158.106 11.3708 157.41 11.1972C157.117 11.1243 156.227 10.7174 155.915 10.8515C155.607 10.9834 155.332 11.4315 155.127 11.6701C154.569 12.3205 154.014 12.9855 153.518 13.6847C153.237 14.0811 152.598 14.8789 152.585 15.4143C152.569 16.063 153.6 17.1443 153.937 17.5852C154.885 18.8241 155.977 19.8984 157.059 21.0159C157.3 21.2654 157.504 21.4517 157.839 21.5352C158.249 21.6374 158.825 21.2483 159.218 21.1212C159.874 20.9089 159.741 19.6089 159.582 19.1686" stroke="black" stroke-width="2" stroke-linecap="round"/>
<path d="M178.805 14.879C180.305 15.4038 181.49 15.0881 183.053 14.7541C183.763 14.6024 184.572 14.6459 184.45 13.7557C184.332 12.8954 183.445 12.6255 182.695 12.4386C182.38 12.36 181.418 11.9353 181.086 12.0643C180.758 12.1913 180.471 12.6363 180.256 12.8724C179.669 13.5156 179.086 14.1736 178.567 14.867C178.273 15.2601 177.602 16.05 177.597 16.5875C177.591 17.2389 178.717 18.3437 179.086 18.7926C180.125 20.0542 181.316 21.1531 182.496 22.2951C182.76 22.5502 182.981 22.7409 183.342 22.8308C183.783 22.9409 184.394 22.5604 184.813 22.4398C185.513 22.2385 185.347 20.9302 185.169 20.4851" stroke="black" stroke-width="2" stroke-linecap="round"/>
<path d="M169.802 13.8704C167.157 13.2109 164.833 13.8295 163.102 16.1383C162.514 16.9224 161.946 18.3509 162.276 19.339C162.582 20.2546 163.351 21.427 164.197 21.8878C164.693 22.1578 165.402 22.2171 165.94 22.3511C166.401 22.466 167.09 22.8061 167.494 22.408C167.984 21.9262 168.275 21.309 168.48 20.6415C168.991 18.9753 169.081 17.0926 169.236 15.3677C169.445 13.0262 169.545 10.7984 169.284 8.46599C169.245 8.11411 169.195 7.76584 169.109 7.42329C168.639 5.55173 169.507 11.284 169.87 13.1829C170.203 14.9273 170.781 16.588 171.081 18.3289C171.124 18.579 171.412 19.4562 171.658 19.5076C172.514 19.6863 174.177 18.5757 174.55 17.7709" stroke="black" stroke-width="2" stroke-linecap="round"/>
<path d="M195.131 12.6262C192.347 11.932 189.915 12.5238 188.127 14.8183C187.519 15.5976 186.941 17.0235 187.3 18.0187C187.632 18.9409 188.454 20.1264 189.347 20.5991C189.871 20.876 190.616 20.9443 191.182 21.0853C191.667 21.2063 192.394 21.5559 192.814 21.1616C193.322 20.6843 193.62 20.0689 193.827 19.4019C194.343 17.7368 194.414 15.8494 194.555 14.1211C194.745 11.775 194.823 9.54153 194.521 7.19875C194.475 6.84531 194.419 6.49535 194.324 6.15068C193.807 4.26754 194.79 10.0282 195.194 11.9375C195.565 13.6913 196.192 15.3642 196.528 17.1143C196.577 17.3657 196.889 18.2491 197.148 18.3037C198.049 18.4936 199.781 17.4 200.163 16.5974" stroke="black" stroke-width="2" stroke-linecap="round"/>
<path d="M203.896 1C208.051 4.64617 210.868 9.31534 211.997 14.6293C212.464 16.8275 213.873 20.1678 212.211 21.8297C210.762 23.2792 208.873 25.0803 207.754 26.7585C206.468 28.6868 206.772 29.9301 204.282 29.9301" stroke="black" stroke-width="2" stroke-linecap="round"/>
<path d="M5.78322 4.85742C4.29919 8.42874 2.52121 11.6707 1.12855 15.2881C0.641993 16.552 1.67336 19.2815 1.95482 20.5035C2.43825 22.6023 2.74365 24.2974 3.66245 26.25C4.31055 27.6274 5.67644 30.0095 6.89868 30.6444C7.55126 30.9835 8.28214 31.6489 8.86797 32.1575C9.74697 32.9208 10.4392 33.9614 11.3468 34.6686C11.8665 35.0737 11.9762 34.9882 11.4845 34.7008" stroke="black" stroke-width="2" stroke-linecap="round"/>
</svg>
