<svg width="206" height="128" viewBox="0 0 206 128" fill="none" xmlns="http://www.w3.org/2000/svg">
<path d="M40.7452 91.0258L100.643 72.0731C106.744 70.1428 108.222 62.187 103.222 58.1943L57.5442 21.7192C53.0082 18.0971 46.2457 20.3599 44.8032 25.9826L30.5828 81.4105C29.0222 87.4933 34.7579 92.9203 40.7452 91.0258Z" fill="currentColor"/>
<path d="M104.378 38.0875L147.765 72.8342C152.274 76.4456 159.008 74.2329 160.496 68.6507L174.958 14.4033C176.602 8.23753 170.719 2.72328 164.672 4.76164L106.824 24.2623C100.829 26.2831 99.4407 34.1332 104.378 38.0875Z" fill="currentColor"/>
<path fill-rule="evenodd" clip-rule="evenodd" d="M103 128C159.885 128 206 120.613 206 111.5C206 102.387 159.885 95 103 95C46.1147 95 0 102.387 0 111.5C0 120.613 46.1147 128 103 128ZM71.3711 104.182L75.271 118H77.7404L80.5135 108.304H80.6215L83.3878 118H85.8572L89.7571 104.182H87.065L84.5753 114.343H84.4538L81.7887 104.182H79.3395L76.6811 114.336H76.5529L74.0632 104.182H71.3711ZM98.7089 118V104.182H96.2057V118H98.7089ZM112.846 106.604C113.314 106.932 113.579 107.391 113.642 107.98H116.051C116.037 107.202 115.819 106.514 115.396 105.916C114.973 105.313 114.391 104.843 113.649 104.506C112.911 104.164 112.052 103.993 111.071 103.993C110.104 103.993 109.238 104.164 108.474 104.506C107.709 104.843 107.104 105.318 106.659 105.929C106.218 106.541 105.998 107.254 105.998 108.068C105.998 109.058 106.326 109.852 106.983 110.45C107.644 111.044 108.543 111.487 109.681 111.779L111.254 112.184C111.748 112.31 112.18 112.454 112.549 112.616C112.922 112.773 113.212 112.971 113.419 113.21C113.626 113.443 113.732 113.74 113.737 114.1C113.732 114.496 113.613 114.842 113.379 115.139C113.145 115.432 112.821 115.661 112.407 115.827C111.998 115.989 111.521 116.07 110.977 116.07C110.455 116.07 109.983 115.992 109.56 115.834C109.142 115.677 108.802 115.438 108.541 115.119C108.28 114.8 108.132 114.399 108.096 113.918H105.633C105.669 114.836 105.908 115.614 106.348 116.252C106.794 116.891 107.41 117.377 108.197 117.71C108.989 118.043 109.922 118.209 110.997 118.209C112.104 118.209 113.046 118.038 113.824 117.696C114.607 117.35 115.205 116.871 115.619 116.259C116.033 115.643 116.24 114.93 116.24 114.12C116.24 113.522 116.127 113 115.902 112.555C115.677 112.11 115.372 111.73 114.985 111.415C114.602 111.1 114.168 110.839 113.683 110.632C113.201 110.425 112.7 110.261 112.178 110.14L110.882 109.816C110.599 109.748 110.318 109.665 110.039 109.566C109.76 109.467 109.506 109.346 109.277 109.202C109.047 109.053 108.865 108.873 108.73 108.662C108.6 108.451 108.534 108.201 108.534 107.913C108.539 107.567 108.64 107.259 108.838 106.989C109.036 106.719 109.322 106.505 109.695 106.348C110.068 106.19 110.516 106.112 111.038 106.112C111.78 106.112 112.383 106.276 112.846 106.604ZM123.184 104.182V118H125.687V113.884L127.219 112.076L131.342 118H134.351L128.96 110.382L134.304 104.182H131.247L125.856 110.531H125.687V104.182H123.184Z" fill="currentColor"/>
</svg>
