<svg xmlns="http://www.w3.org/2000/svg" viewBox="-12 -12 24 24">
  <!-- Main branches (6 of them) -->
  <g stroke="#000" stroke-width="1" stroke-linecap="round">
    <!-- Branch 1 (0°) -->
    <g>
      <path d="M0 0 L8 0" />
      <path d="M4 0 L5.5 2" />
      <path d="M4 0 L5.5 -2" />
    </g>

    <!-- Branch 2 (60°) -->
    <g transform="rotate(60)">
      <path d="M0 0 L8 0" />
      <path d="M4 0 L5.5 2" />
      <path d="M4 0 L5.5 -2" />
    </g>

    <!-- Branch 3 (120°) -->
    <g transform="rotate(120)">
      <path d="M0 0 L8 0" />
      <path d="M4 0 L5.5 2" />
      <path d="M4 0 L5.5 -2" />
    </g>

    <!-- Branch 4 (180°) -->
    <g transform="rotate(180)">
      <path d="M0 0 L8 0" />
      <path d="M4 0 L5.5 2" />
      <path d="M4 0 L5.5 -2" />
    </g>

    <!-- Branch 5 (240°) -->
    <g transform="rotate(240)">
      <path d="M0 0 L8 0" />
      <path d="M4 0 L5.5 2" />
      <path d="M4 0 L5.5 -2" />
    </g>

    <!-- Branch 6 (300°) -->
    <g transform="rotate(300)">
      <path d="M0 0 L8 0" />
      <path d="M4 0 L5.5 2" />
      <path d="M4 0 L5.5 -2" />
    </g>
  </g>

  <!-- Center point -->
  <circle cx="0" cy="0" r="0.35" fill="#000"/>
</svg>
