<svg width="136" height="53" viewBox="0 0 136 53" fill="none" xmlns="http://www.w3.org/2000/svg">
<circle cx="26.5" cy="26.5" r="24.5" fill="black" stroke="black" stroke-width="4"/>
<path d="M89.6747 13.2727V38H86.2457L73.6768 19.8651H73.4474V38H69.7166V13.2727H73.1697L85.7507 31.4318H85.9801V13.2727H89.6747ZM102.82 38.3743C100.993 38.3743 99.4193 37.9839 98.0993 37.2031C96.7872 36.4143 95.773 35.3075 95.0566 33.8828C94.3483 32.45 93.9941 30.7718 93.9941 28.848C93.9941 26.9484 94.3483 25.2741 95.0566 23.8253C95.773 22.3764 96.7711 21.2455 98.051 20.4325C99.3388 19.6196 100.844 19.2131 102.567 19.2131C103.613 19.2131 104.627 19.3861 105.609 19.7322C106.591 20.0784 107.473 20.6217 108.253 21.3622C109.034 22.1027 109.65 23.0646 110.101 24.2479C110.551 25.4231 110.777 26.8518 110.777 28.5341V29.8139H96.0346V27.1094H107.239C107.239 26.1596 107.046 25.3184 106.66 24.5859C106.273 23.8454 105.73 23.2618 105.03 22.8352C104.337 22.4086 103.524 22.1953 102.591 22.1953C101.577 22.1953 100.691 22.4448 99.9345 22.9439C99.1859 23.4349 98.6064 24.0788 98.1958 24.8757C97.7934 25.6645 97.5922 26.5218 97.5922 27.4474V29.5604C97.5922 30.8 97.8095 31.8544 98.2441 32.7237C98.6868 33.593 99.3026 34.2571 100.091 34.7159C100.88 35.1667 101.802 35.392 102.856 35.392C103.541 35.392 104.164 35.2955 104.728 35.1023C105.291 34.901 105.778 34.6032 106.189 34.2088C106.599 33.8144 106.913 33.3274 107.131 32.7479L110.547 33.3636C110.274 34.3698 109.783 35.2512 109.074 36.0078C108.374 36.7564 107.493 37.34 106.43 37.7585C105.376 38.169 104.172 38.3743 102.82 38.3743ZM122.594 38.3743C120.855 38.3743 119.338 37.9759 118.042 37.179C116.746 36.3821 115.74 35.2673 115.024 33.8345C114.307 32.4018 113.949 30.7275 113.949 28.8118C113.949 26.888 114.307 25.2057 115.024 23.7649C115.74 22.3241 116.746 21.2053 118.042 20.4084C119.338 19.6115 120.855 19.2131 122.594 19.2131C124.333 19.2131 125.85 19.6115 127.146 20.4084C128.442 21.2053 129.448 22.3241 130.164 23.7649C130.881 25.2057 131.239 26.888 131.239 28.8118C131.239 30.7275 130.881 32.4018 130.164 33.8345C129.448 35.2673 128.442 36.3821 127.146 37.179C125.85 37.9759 124.333 38.3743 122.594 38.3743ZM122.606 35.3438C123.733 35.3438 124.667 35.0459 125.407 34.4503C126.148 33.8546 126.695 33.0618 127.049 32.0717C127.412 31.0817 127.593 29.991 127.593 28.7997C127.593 27.6165 127.412 26.5298 127.049 25.5398C126.695 24.5417 126.148 23.7408 125.407 23.1371C124.667 22.5334 123.733 22.2315 122.606 22.2315C121.471 22.2315 120.529 22.5334 119.781 23.1371C119.04 23.7408 118.489 24.5417 118.127 25.5398C117.773 26.5298 117.596 27.6165 117.596 28.7997C117.596 29.991 117.773 31.0817 118.127 32.0717C118.489 33.0618 119.04 33.8546 119.781 34.4503C120.529 35.0459 121.471 35.3438 122.606 35.3438Z" fill="black"/>
</svg>
