<svg width="24" height="24" viewBox="0 0 24 24" fill="none" xmlns="http://www.w3.org/2000/svg">
<rect x="1" y="1" width="22" height="22" stroke="black" stroke-width="1.5"/>
<path d="M10.304 11.2727H11.8722V17.4091C11.8693 17.9716 11.75 18.456 11.5142 18.8622C11.2784 19.2656 10.9489 19.5767 10.5256 19.7955C10.1051 20.0114 9.61506 20.1193 9.0554 20.1193C8.54403 20.1193 8.08381 20.0284 7.67472 19.8466C7.26847 19.6619 6.94602 19.3892 6.70739 19.0284C6.46875 18.6676 6.34943 18.2187 6.34943 17.6818H7.92188C7.92472 17.9176 7.97585 18.1207 8.07528 18.2912C8.17756 18.4616 8.31818 18.5923 8.49716 18.6832C8.67614 18.7741 8.8821 18.8196 9.11506 18.8196C9.3679 18.8196 9.58239 18.767 9.75852 18.6619C9.93466 18.554 10.0682 18.3949 10.1591 18.1847C10.2528 17.9744 10.3011 17.7159 10.304 17.4091V11.2727ZM18.3303 13.6719C18.2905 13.2997 18.1229 13.0099 17.8274 12.8026C17.5348 12.5952 17.1541 12.4915 16.6854 12.4915C16.3558 12.4915 16.0732 12.5412 15.8374 12.6406C15.6016 12.7401 15.4212 12.875 15.2962 13.0455C15.1712 13.2159 15.1072 13.4105 15.1044 13.6293C15.1044 13.8111 15.1456 13.9687 15.228 14.1023C15.3132 14.2358 15.4283 14.3494 15.5732 14.4432C15.718 14.5341 15.8786 14.6108 16.0547 14.6733C16.2308 14.7358 16.4084 14.7884 16.5874 14.831L17.4055 15.0355C17.7351 15.1122 18.0518 15.2159 18.3558 15.3466C18.6626 15.4773 18.9368 15.642 19.1783 15.8409C19.4226 16.0398 19.6158 16.2798 19.7578 16.5611C19.8999 16.8423 19.9709 17.1719 19.9709 17.5497C19.9709 18.0611 19.8402 18.5114 19.5788 18.9006C19.3175 19.2869 18.9396 19.5895 18.4453 19.8082C17.9538 20.0241 17.3587 20.1321 16.6598 20.1321C15.9808 20.1321 15.3913 20.027 14.8913 19.8168C14.3942 19.6065 14.005 19.2997 13.7237 18.8963C13.4453 18.4929 13.2947 18.0014 13.272 17.4219H14.8274C14.8501 17.7259 14.9439 17.9787 15.1087 18.1804C15.2734 18.3821 15.4879 18.5327 15.7521 18.6321C16.0192 18.7315 16.3175 18.7812 16.647 18.7812C16.9908 18.7812 17.2919 18.7301 17.5504 18.6278C17.8118 18.5227 18.0163 18.3778 18.1641 18.1932C18.3118 18.0057 18.3871 17.7869 18.3899 17.5369C18.3871 17.3097 18.3203 17.1222 18.1896 16.9744C18.0589 16.8239 17.8757 16.6989 17.6399 16.5994C17.407 16.4972 17.1342 16.4062 16.8217 16.3267L15.8288 16.071C15.1101 15.8864 14.5419 15.6065 14.1243 15.2315C13.7095 14.8537 13.5021 14.3523 13.5021 13.7273C13.5021 13.2131 13.6413 12.7628 13.9197 12.3764C14.201 11.9901 14.5831 11.6903 15.0661 11.4773C15.549 11.2614 16.0959 11.1534 16.7067 11.1534C17.326 11.1534 17.8686 11.2614 18.3345 11.4773C18.8033 11.6903 19.1712 11.9872 19.4382 12.3679C19.7053 12.7457 19.843 13.1804 19.8516 13.6719H18.3303Z" fill="black"/>
</svg>
