<svg width="24" height="24" viewBox="0 0 24 24" fill="none" xmlns="http://www.w3.org/2000/svg">
<circle cx="12" cy="12" r="11" stroke="black" stroke-width="2"/>
<path d="M5.57386 17V11.1818H6.62784V16.1165H9.19034V17H5.57386ZM12.8409 15.1648V12.6364H13.8693V17H12.8722V16.2244H12.8267C12.7282 16.4687 12.5663 16.6686 12.3409 16.8239C12.1174 16.9792 11.8419 17.0568 11.5142 17.0568C11.2282 17.0568 10.9754 16.9934 10.7557 16.8665C10.5379 16.7377 10.3674 16.5511 10.2443 16.3068C10.1212 16.0606 10.0597 15.7633 10.0597 15.4148V12.6364H11.0881V15.2557C11.0881 15.5322 11.1638 15.7519 11.3153 15.9148C11.4669 16.0777 11.6657 16.1591 11.9119 16.1591C12.0634 16.1591 12.2102 16.1222 12.3523 16.0483C12.4943 15.9744 12.6108 15.8646 12.7017 15.7188C12.7945 15.571 12.8409 15.3864 12.8409 15.1648ZM16.1825 17.0881C15.906 17.0881 15.657 17.0388 15.4354 16.9403C15.2157 16.84 15.0414 16.6922 14.9126 16.4972C14.7857 16.3021 14.7223 16.0616 14.7223 15.7756C14.7223 15.5294 14.7678 15.3258 14.8587 15.1648C14.9496 15.0038 15.0736 14.875 15.2308 14.7784C15.388 14.6818 15.5651 14.6089 15.7621 14.5597C15.9609 14.5085 16.1664 14.4716 16.3786 14.4489C16.6342 14.4223 16.8416 14.3987 17.0007 14.3778C17.1598 14.3551 17.2753 14.321 17.3473 14.2756C17.4212 14.2282 17.4581 14.1553 17.4581 14.0568V14.0398C17.4581 13.8258 17.3946 13.66 17.2678 13.5426C17.1409 13.4252 16.9581 13.3665 16.7195 13.3665C16.4676 13.3665 16.2678 13.4214 16.12 13.5312C15.9742 13.6411 15.8757 13.7708 15.8246 13.9205L14.8643 13.7841C14.9401 13.5189 15.0651 13.2973 15.2393 13.1193C15.4136 12.9394 15.6267 12.8049 15.8786 12.7159C16.1304 12.625 16.4089 12.5795 16.7138 12.5795C16.924 12.5795 17.1333 12.6042 17.3416 12.6534C17.55 12.7027 17.7403 12.7841 17.9126 12.8977C18.085 13.0095 18.2232 13.1619 18.3274 13.3551C18.4335 13.5483 18.4865 13.7898 18.4865 14.0795V17H17.4979V16.4006H17.4638C17.4013 16.5218 17.3132 16.6354 17.1996 16.7415C17.0878 16.8456 16.9467 16.9299 16.7763 16.9943C16.6077 17.0568 16.4098 17.0881 16.1825 17.0881ZM16.4496 16.3324C16.656 16.3324 16.835 16.2917 16.9865 16.2102C17.138 16.1269 17.2545 16.017 17.3359 15.8807C17.4193 15.7443 17.4609 15.5956 17.4609 15.4347V14.9205C17.4287 14.947 17.3738 14.9716 17.2962 14.9943C17.2204 15.017 17.1352 15.0369 17.0405 15.054C16.9458 15.071 16.852 15.0862 16.7592 15.0994C16.6664 15.1127 16.5859 15.1241 16.5178 15.1335C16.3643 15.1544 16.227 15.1884 16.1058 15.2358C15.9846 15.2831 15.889 15.3494 15.8189 15.4347C15.7488 15.518 15.7138 15.6259 15.7138 15.7585C15.7138 15.9479 15.7829 16.0909 15.9212 16.1875C16.0594 16.2841 16.2356 16.3324 16.4496 16.3324Z" fill="black"/>
<circle cx="14.5" cy="6.5" r="2.5" fill="black"/>
</svg>
