<svg width="24" height="24" viewBox="0 0 24 24" fill="none" xmlns="http://www.w3.org/2000/svg">
<circle cx="12" cy="12" r="10.5" stroke="black"/>
<path d="M13.9294 5.19996C12.9294 5.19996 10.8294 5.03174 10.4294 5.03174C10.4294 5.03174 14.2322 3.68083 14.9294 4.0315C15.6266 4.38216 16.5 4.65888 16.7147 4.92942C16.9294 5.19996 17.3729 5.77954 16.9294 6.53174C16.4858 7.28395 15.7766 7.31995 14.9294 7.53174C14.0822 7.74353 13.4012 7.8047 12.4295 7.89996C12.4295 7.89996 9.92938 8.0315 9.92938 8.5315C9.92938 9.0315 11.9295 10.0315 11.9295 10.0315C11.9295 10.0315 15.4294 10.9292 15.4294 11.4294C15.4294 11.9296 11.9295 12.0317 9.92938 13.5317C9.36615 13.9541 8.79131 14.3414 8.92938 15.0317C9.06745 15.7221 9.80289 15.7105 10.4294 16.0317C11.0559 16.3529 12.9294 16.4294 14.9294 16.4294C16.9294 16.4294 17.7147 16.4295 18.2147 16.9294C18.7147 17.4293 18.1303 17.8978 17.7147 18.0317C14.9294 18.9294 15.2147 19.0705 13 19.5C10.8073 19.9252 7.92938 19.7192 7.92938 19.7192L13.9294 18.0317L15.4294 17.4294C15.4294 17.4294 11.5 18.0317 8.92938 17.4294C6.35877 16.8271 5.47464 16.1659 5.21469 15.4294C4.95474 14.6929 4.90328 14.248 5.2147 13.5317C5.52611 12.8155 6.92951 12.2573 7.42938 12.0317C9.63233 11.0376 12.4295 11.2 12.4295 11.2C12.4295 11.2 7.71469 10.0315 7 7.9294C6.77338 7.26285 7.26148 6.75438 7.92938 6.53174C9.42938 6.03174 13.4294 6.03174 13.4294 6.03174C13.4294 6.03174 14.4911 5.96376 14.4294 5.53153C14.3903 5.25816 13.9294 5.19996 13.9294 5.19996Z" fill="black"/>
</svg>
