<svg width="24" height="24" viewBox="0 0 24 24" fill="none" xmlns="http://www.w3.org/2000/svg">
<path d="M2 13.4375C2.17671 12.9925 2.41469 12.4516 2.70139 12.0625C3.14715 11.4575 3.418 12.2675 3.63194 12.6597C3.86091 13.0795 4.20526 13.7383 4.59722 14.0486C4.66259 14.1004 7.05761 11.0178 7.21528 10.8368C7.48968 10.5219 7.9277 10 8.40625 10C8.57209 10 8.65436 10.2181 8.72222 10.3333C9.14458 11.0505 9.5431 11.7619 10.0417 12.4306C10.2675 12.7335 10.4924 13.1196 10.8125 13.3368C11.194 13.5957 11.9905 13.2141 12.3507 13.0729C14.2423 12.3314 20.4087 12.1787 22.5 12.0625" stroke="black" stroke-width="1.5" stroke-linecap="round"/>
</svg>
