<svg width="24" height="24" viewBox="0 0 24 24" fill="none" xmlns="http://www.w3.org/2000/svg">
<mask id="path-1-outside-1_459_2" maskUnits="userSpaceOnUse" x="1.00195" y="2.00171" width="17" height="19" fill="black">
<rect fill="white" x="1.00195" y="2.00171" width="17" height="19"/>
<path d="M5.90395 20.1317L3.38195 4.84371C3.26062 4.15038 2.88795 3.66504 2.26395 3.38771L2.13395 3.36171L2.23795 2.81571H8.24395L8.16595 3.33571L7.85395 3.43971C7.17795 3.66504 6.89195 4.13304 6.99595 4.84371L8.65995 16.3357L14.51 4.73971C14.8393 4.08104 14.6486 3.63904 13.938 3.41371L13.73 3.33571L13.808 2.81571H17.526L17.422 3.36171L17.136 3.43971C16.3733 3.68237 15.7926 4.15904 15.394 4.86971L7.56795 20.1317H5.90395Z"/>
</mask>
<path d="M5.90395 20.1317L3.38195 4.84371C3.26062 4.15038 2.88795 3.66504 2.26395 3.38771L2.13395 3.36171L2.23795 2.81571H8.24395L8.16595 3.33571L7.85395 3.43971C7.17795 3.66504 6.89195 4.13304 6.99595 4.84371L8.65995 16.3357L14.51 4.73971C14.8393 4.08104 14.6486 3.63904 13.938 3.41371L13.73 3.33571L13.808 2.81571H17.526L17.422 3.36171L17.136 3.43971C16.3733 3.68237 15.7926 4.15904 15.394 4.86971L7.56795 20.1317H5.90395Z" fill="black"/>
<path d="M5.90395 20.1317L5.60795 20.1805L5.64939 20.4317H5.90395V20.1317ZM3.38195 4.84371L3.67797 4.79488L3.67746 4.79199L3.38195 4.84371ZM2.26395 3.38771L2.3858 3.11356L2.3554 3.10006L2.32279 3.09353L2.26395 3.38771ZM2.13395 3.36171L1.83925 3.30557L1.78363 3.59759L2.07512 3.65588L2.13395 3.36171ZM2.23795 2.81571V2.51571H1.9897L1.94325 2.75957L2.23795 2.81571ZM8.24395 2.81571L8.54063 2.86021L8.59231 2.51571H8.24395V2.81571ZM8.16595 3.33571L8.26082 3.62031L8.43535 3.56214L8.46263 3.38021L8.16595 3.33571ZM7.85395 3.43971L7.94882 3.72431L7.94882 3.72431L7.85395 3.43971ZM6.99595 4.84371L7.29286 4.80072L7.29279 4.80027L6.99595 4.84371ZM8.65995 16.3357L8.36305 16.3787L8.49936 17.3201L8.9278 16.4708L8.65995 16.3357ZM14.51 4.73971L14.7778 4.87483L14.7783 4.87387L14.51 4.73971ZM13.938 3.41371L13.8326 3.69461L13.8399 3.69733L13.8473 3.69968L13.938 3.41371ZM13.73 3.33571L13.4333 3.29121L13.3973 3.53134L13.6246 3.61661L13.73 3.33571ZM13.808 2.81571V2.51571H13.5496L13.5113 2.77121L13.808 2.81571ZM17.526 2.81571L17.8207 2.87184L17.8885 2.51571H17.526V2.81571ZM17.422 3.36171L17.5009 3.65114L17.6816 3.60185L17.7167 3.41784L17.422 3.36171ZM17.136 3.43971L17.0569 3.15003L17.045 3.15383L17.136 3.43971ZM15.394 4.86971L15.1321 4.72283L15.127 4.73282L15.394 4.86971ZM7.56795 20.1317V20.4317H7.75126L7.8349 20.2686L7.56795 20.1317ZM6.19995 20.0829L3.67795 4.79488L3.08595 4.89254L5.60795 20.1805L6.19995 20.0829ZM3.67746 4.79199C3.53954 4.00385 3.10444 3.43296 2.3858 3.11356L2.14211 3.66185C2.67147 3.89712 2.9817 4.2969 3.08644 4.89542L3.67746 4.79199ZM2.32279 3.09353L2.19279 3.06753L2.07512 3.65588L2.20512 3.68188L2.32279 3.09353ZM2.42865 3.41784L2.53265 2.87184L1.94325 2.75957L1.83925 3.30557L2.42865 3.41784ZM2.23795 3.11571H8.24395V2.51571H2.23795V3.11571ZM7.94727 2.77121L7.86927 3.29121L8.46263 3.38021L8.54063 2.86021L7.94727 2.77121ZM8.07108 3.0511L7.75908 3.1551L7.94882 3.72431L8.26082 3.62031L8.07108 3.0511ZM7.75909 3.1551C7.37437 3.28334 7.06623 3.49275 6.87647 3.80327C6.6869 4.11347 6.64015 4.4842 6.69912 4.88715L7.29279 4.80027C7.24776 4.49255 7.292 4.27395 7.38844 4.11614C7.48467 3.95867 7.65753 3.82141 7.94882 3.72431L7.75909 3.1551ZM6.69905 4.8867L8.36305 16.3787L8.95686 16.2927L7.29286 4.80072L6.69905 4.8867ZM8.9278 16.4708L14.7778 4.87483L14.2421 4.60458L8.39211 16.2006L8.9278 16.4708ZM14.7783 4.87387C14.9614 4.50765 15.035 4.13282 14.8894 3.79538C14.7444 3.45926 14.4215 3.2523 14.0286 3.12774L13.8473 3.69968C14.1651 3.80045 14.2928 3.92716 14.3385 4.03304C14.3836 4.1376 14.3878 4.3131 14.2416 4.60554L14.7783 4.87387ZM14.0433 3.13281L13.8353 3.05481L13.6246 3.61661L13.8326 3.69461L14.0433 3.13281ZM14.0266 3.38021L14.1046 2.86021L13.5113 2.77121L13.4333 3.29121L14.0266 3.38021ZM13.808 3.11571H17.526V2.51571H13.808V3.11571ZM17.2313 2.75957L17.1273 3.30557L17.7167 3.41784L17.8207 2.87184L17.2313 2.75957ZM17.343 3.07228L17.057 3.15028L17.2149 3.72914L17.5009 3.65114L17.343 3.07228ZM17.045 3.15383C16.2084 3.42002 15.5674 3.94728 15.1323 4.72293L15.6556 5.01648C16.0178 4.37081 16.5382 3.94473 17.2269 3.72559L17.045 3.15383ZM15.127 4.73282L7.301 19.9948L7.8349 20.2686L15.6609 5.00659L15.127 4.73282ZM7.56795 19.8317H5.90395V20.4317H7.56795V19.8317Z" fill="black" mask="url(#path-1-outside-1_459_2)"/>
<mask id="path-3-outside-2_459_2" maskUnits="userSpaceOnUse" x="11.002" y="12.0017" width="11" height="9" fill="black">
<rect fill="white" x="11.002" y="12.0017" width="11" height="9"/>
<path d="M13.9902 13.8054C13.9186 13.8803 13.8372 13.9421 13.7461 13.991C13.6549 14.0365 13.5589 14.0658 13.458 14.0789C13.3571 14.0886 13.2611 14.0723 13.1699 14.03C13.082 13.9877 13.0055 13.9275 12.9404 13.8494C12.8005 13.6866 12.7305 13.5222 12.7305 13.3562C12.7305 13.1902 12.7565 13.0665 12.8086 12.9851C12.8639 12.9005 12.9323 12.8321 13.0137 12.78C13.1699 12.6791 13.3164 12.6287 13.4531 12.6287C13.5931 12.6287 13.7005 12.6384 13.7754 12.658C13.8535 12.6775 13.9251 12.71 13.9902 12.7556C14.1497 12.863 14.2295 12.9949 14.2295 13.1511C14.2295 13.3041 14.2067 13.4327 14.1611 13.5369C14.1188 13.6378 14.0618 13.7273 13.9902 13.8054ZM12.9893 19.0886C13.0739 19.0886 13.1162 19.144 13.1162 19.2546C13.1162 19.4011 13.0495 19.5525 12.916 19.7087C12.7207 19.9366 12.4587 20.0505 12.1299 20.0505C11.7523 20.0505 11.4935 19.8975 11.3535 19.5916C11.3014 19.4841 11.2754 19.3539 11.2754 19.2009C11.2754 19.0479 11.3014 18.8787 11.3535 18.6931C11.4089 18.5043 11.4756 18.3074 11.5537 18.1023C11.6351 17.894 11.723 17.684 11.8174 17.4724L12.0762 16.8572C12.265 16.3982 12.3594 16.0955 12.3594 15.949C12.3594 15.8025 12.3431 15.7065 12.3105 15.6609C12.2812 15.6121 12.2487 15.5746 12.2129 15.5486L12.1152 15.4802C12.0827 15.4574 12.0664 15.4184 12.0664 15.363C12.0664 15.3044 12.0876 15.2491 12.1299 15.197C12.1755 15.1449 12.234 15.0994 12.3057 15.0603C12.4521 14.9854 12.623 14.948 12.8184 14.948C13.2969 14.948 13.5361 15.0733 13.5361 15.324C13.5361 15.6169 13.4596 15.9522 13.3066 16.3298C13.1536 16.7042 13.0234 17.0069 12.916 17.238L12.623 17.9119C12.4082 18.4067 12.3008 18.7631 12.3008 18.9812C12.3008 19.1244 12.3724 19.196 12.5156 19.196C12.6556 19.196 12.7614 19.1781 12.833 19.1423C12.9046 19.1065 12.9567 19.0886 12.9893 19.0886ZM17.8965 15.8708C17.7077 15.8708 17.3626 16.1443 16.8613 16.6912C16.487 17.1176 16.2152 17.4382 16.0459 17.6531L15.6064 18.2097C15.4176 18.5678 15.2695 18.8656 15.1621 19.1033L14.8984 19.6697C14.8301 19.8097 14.7699 19.9089 14.7178 19.9675C14.6689 20.0229 14.6006 20.0505 14.5127 20.0505C14.4281 20.0505 14.3451 20.0343 14.2637 20.0017C14.1855 19.9724 14.1172 19.9333 14.0586 19.8845C13.9349 19.7804 13.873 19.6664 13.873 19.5427C13.873 19.4939 13.9089 19.3979 13.9805 19.2546L14.166 18.8591C14.2246 18.7419 14.293 18.5922 14.3711 18.4099L14.6445 17.741C15.0286 16.7807 15.2207 16.1606 15.2207 15.8806C15.2207 15.7309 15.1719 15.6202 15.0742 15.5486L14.9766 15.4802C14.944 15.4574 14.9277 15.4184 14.9277 15.363C14.9277 15.3044 14.9489 15.2491 14.9912 15.197C15.0368 15.1449 15.0954 15.0994 15.167 15.0603C15.3135 14.9854 15.46 14.948 15.6064 14.948C15.7562 14.948 15.8734 14.9643 15.958 14.9968C16.0426 15.0294 16.1159 15.0733 16.1777 15.1287C16.3014 15.2426 16.3633 15.3614 16.3633 15.4851C16.3633 15.6088 16.347 15.7341 16.3145 15.8611C16.2819 15.9848 16.2412 16.1117 16.1924 16.2419C16.1436 16.3689 16.0915 16.4926 16.0361 16.613C15.9059 16.893 15.8245 17.0655 15.792 17.1306C15.7627 17.1925 15.7546 17.2153 15.7676 17.199C16.3633 16.4275 16.7214 15.9718 16.8418 15.8318C17.0924 15.5421 17.2878 15.3435 17.4277 15.2361C17.6849 15.044 17.9274 14.948 18.1553 14.948C18.3864 14.948 18.5703 15.0196 18.707 15.1628C18.8438 15.3061 18.9121 15.4949 18.9121 15.7292C18.9121 15.9343 18.86 16.1752 18.7559 16.4519C18.6517 16.7286 18.5817 16.9223 18.5459 17.033L19.2637 16.0857L19.6641 15.6072C19.9049 15.337 20.1165 15.1596 20.2988 15.075C20.4811 14.9903 20.6292 14.948 20.7432 14.948C20.8604 14.948 20.9743 14.9692 21.085 15.0115C21.1989 15.0538 21.2949 15.114 21.373 15.1921C21.5391 15.3516 21.6221 15.5632 21.6221 15.8269C21.6221 16.0808 21.5635 16.3412 21.4463 16.6082C21.3291 16.8751 21.2266 17.0948 21.1387 17.2673C21.0508 17.4366 20.9661 17.6075 20.8848 17.78C20.6471 18.2976 20.5283 18.6817 20.5283 18.9324C20.5283 19.1082 20.5999 19.196 20.7432 19.196C20.8799 19.196 21.0036 19.1667 21.1143 19.1082C21.2282 19.0496 21.3014 19.0203 21.334 19.0203C21.4023 19.0203 21.4365 19.0544 21.4365 19.1228C21.4365 19.4125 21.2884 19.655 20.9922 19.8503C20.7936 19.9838 20.6113 20.0505 20.4453 20.0505C20.2826 20.0505 20.1507 20.031 20.0498 19.9919C19.9489 19.9529 19.8577 19.891 19.7764 19.8064C19.5941 19.6176 19.5029 19.3816 19.5029 19.0984C19.5029 18.8152 19.5387 18.5548 19.6104 18.3171C19.682 18.0795 19.7666 17.85 19.8643 17.6287C19.9619 17.4041 20.0596 17.199 20.1572 17.0134C20.2581 16.8246 20.3346 16.6749 20.3867 16.5642C20.4909 16.3363 20.543 16.1687 20.543 16.0613C20.543 15.9343 20.4762 15.8708 20.3428 15.8708C20.167 15.8708 19.8512 16.1622 19.3955 16.7449C19.0505 17.1973 18.8112 17.5229 18.6777 17.7214L18.3408 18.2097C18.152 18.5678 18.0072 18.8656 17.9062 19.1033L17.6572 19.6697C17.5954 19.8097 17.5417 19.9089 17.4961 19.9675C17.4505 20.0229 17.387 20.0505 17.3057 20.0505C17.2243 20.0505 17.1445 20.0375 17.0664 20.0115C16.9915 19.9854 16.9264 19.9513 16.8711 19.9089C16.7441 19.8145 16.6807 19.7153 16.6807 19.6111C16.6807 19.5037 16.7148 19.3588 16.7832 19.1765C16.8548 18.991 16.9427 18.7843 17.0469 18.5564L17.7305 17.1111C17.9746 16.574 18.0967 16.2338 18.0967 16.0906C18.0967 15.9441 18.0299 15.8708 17.8965 15.8708ZM18.3799 17.2478C18.3831 17.2478 18.3848 17.2462 18.3848 17.2429L18.3896 17.2332C18.3831 17.2397 18.3799 17.2445 18.3799 17.2478Z"/>
</mask>
<path d="M13.9902 13.8054C13.9186 13.8803 13.8372 13.9421 13.7461 13.991C13.6549 14.0365 13.5589 14.0658 13.458 14.0789C13.3571 14.0886 13.2611 14.0723 13.1699 14.03C13.082 13.9877 13.0055 13.9275 12.9404 13.8494C12.8005 13.6866 12.7305 13.5222 12.7305 13.3562C12.7305 13.1902 12.7565 13.0665 12.8086 12.9851C12.8639 12.9005 12.9323 12.8321 13.0137 12.78C13.1699 12.6791 13.3164 12.6287 13.4531 12.6287C13.5931 12.6287 13.7005 12.6384 13.7754 12.658C13.8535 12.6775 13.9251 12.71 13.9902 12.7556C14.1497 12.863 14.2295 12.9949 14.2295 13.1511C14.2295 13.3041 14.2067 13.4327 14.1611 13.5369C14.1188 13.6378 14.0618 13.7273 13.9902 13.8054ZM12.9893 19.0886C13.0739 19.0886 13.1162 19.144 13.1162 19.2546C13.1162 19.4011 13.0495 19.5525 12.916 19.7087C12.7207 19.9366 12.4587 20.0505 12.1299 20.0505C11.7523 20.0505 11.4935 19.8975 11.3535 19.5916C11.3014 19.4841 11.2754 19.3539 11.2754 19.2009C11.2754 19.0479 11.3014 18.8787 11.3535 18.6931C11.4089 18.5043 11.4756 18.3074 11.5537 18.1023C11.6351 17.894 11.723 17.684 11.8174 17.4724L12.0762 16.8572C12.265 16.3982 12.3594 16.0955 12.3594 15.949C12.3594 15.8025 12.3431 15.7065 12.3105 15.6609C12.2812 15.6121 12.2487 15.5746 12.2129 15.5486L12.1152 15.4802C12.0827 15.4574 12.0664 15.4184 12.0664 15.363C12.0664 15.3044 12.0876 15.2491 12.1299 15.197C12.1755 15.1449 12.234 15.0994 12.3057 15.0603C12.4521 14.9854 12.623 14.948 12.8184 14.948C13.2969 14.948 13.5361 15.0733 13.5361 15.324C13.5361 15.6169 13.4596 15.9522 13.3066 16.3298C13.1536 16.7042 13.0234 17.0069 12.916 17.238L12.623 17.9119C12.4082 18.4067 12.3008 18.7631 12.3008 18.9812C12.3008 19.1244 12.3724 19.196 12.5156 19.196C12.6556 19.196 12.7614 19.1781 12.833 19.1423C12.9046 19.1065 12.9567 19.0886 12.9893 19.0886ZM17.8965 15.8708C17.7077 15.8708 17.3626 16.1443 16.8613 16.6912C16.487 17.1176 16.2152 17.4382 16.0459 17.6531L15.6064 18.2097C15.4176 18.5678 15.2695 18.8656 15.1621 19.1033L14.8984 19.6697C14.8301 19.8097 14.7699 19.9089 14.7178 19.9675C14.6689 20.0229 14.6006 20.0505 14.5127 20.0505C14.4281 20.0505 14.3451 20.0343 14.2637 20.0017C14.1855 19.9724 14.1172 19.9333 14.0586 19.8845C13.9349 19.7804 13.873 19.6664 13.873 19.5427C13.873 19.4939 13.9089 19.3979 13.9805 19.2546L14.166 18.8591C14.2246 18.7419 14.293 18.5922 14.3711 18.4099L14.6445 17.741C15.0286 16.7807 15.2207 16.1606 15.2207 15.8806C15.2207 15.7309 15.1719 15.6202 15.0742 15.5486L14.9766 15.4802C14.944 15.4574 14.9277 15.4184 14.9277 15.363C14.9277 15.3044 14.9489 15.2491 14.9912 15.197C15.0368 15.1449 15.0954 15.0994 15.167 15.0603C15.3135 14.9854 15.46 14.948 15.6064 14.948C15.7562 14.948 15.8734 14.9643 15.958 14.9968C16.0426 15.0294 16.1159 15.0733 16.1777 15.1287C16.3014 15.2426 16.3633 15.3614 16.3633 15.4851C16.3633 15.6088 16.347 15.7341 16.3145 15.8611C16.2819 15.9848 16.2412 16.1117 16.1924 16.2419C16.1436 16.3689 16.0915 16.4926 16.0361 16.613C15.9059 16.893 15.8245 17.0655 15.792 17.1306C15.7627 17.1925 15.7546 17.2153 15.7676 17.199C16.3633 16.4275 16.7214 15.9718 16.8418 15.8318C17.0924 15.5421 17.2878 15.3435 17.4277 15.2361C17.6849 15.044 17.9274 14.948 18.1553 14.948C18.3864 14.948 18.5703 15.0196 18.707 15.1628C18.8438 15.3061 18.9121 15.4949 18.9121 15.7292C18.9121 15.9343 18.86 16.1752 18.7559 16.4519C18.6517 16.7286 18.5817 16.9223 18.5459 17.033L19.2637 16.0857L19.6641 15.6072C19.9049 15.337 20.1165 15.1596 20.2988 15.075C20.4811 14.9903 20.6292 14.948 20.7432 14.948C20.8604 14.948 20.9743 14.9692 21.085 15.0115C21.1989 15.0538 21.2949 15.114 21.373 15.1921C21.5391 15.3516 21.6221 15.5632 21.6221 15.8269C21.6221 16.0808 21.5635 16.3412 21.4463 16.6082C21.3291 16.8751 21.2266 17.0948 21.1387 17.2673C21.0508 17.4366 20.9661 17.6075 20.8848 17.78C20.6471 18.2976 20.5283 18.6817 20.5283 18.9324C20.5283 19.1082 20.5999 19.196 20.7432 19.196C20.8799 19.196 21.0036 19.1667 21.1143 19.1082C21.2282 19.0496 21.3014 19.0203 21.334 19.0203C21.4023 19.0203 21.4365 19.0544 21.4365 19.1228C21.4365 19.4125 21.2884 19.655 20.9922 19.8503C20.7936 19.9838 20.6113 20.0505 20.4453 20.0505C20.2826 20.0505 20.1507 20.031 20.0498 19.9919C19.9489 19.9529 19.8577 19.891 19.7764 19.8064C19.5941 19.6176 19.5029 19.3816 19.5029 19.0984C19.5029 18.8152 19.5387 18.5548 19.6104 18.3171C19.682 18.0795 19.7666 17.85 19.8643 17.6287C19.9619 17.4041 20.0596 17.199 20.1572 17.0134C20.2581 16.8246 20.3346 16.6749 20.3867 16.5642C20.4909 16.3363 20.543 16.1687 20.543 16.0613C20.543 15.9343 20.4762 15.8708 20.3428 15.8708C20.167 15.8708 19.8512 16.1622 19.3955 16.7449C19.0505 17.1973 18.8112 17.5229 18.6777 17.7214L18.3408 18.2097C18.152 18.5678 18.0072 18.8656 17.9062 19.1033L17.6572 19.6697C17.5954 19.8097 17.5417 19.9089 17.4961 19.9675C17.4505 20.0229 17.387 20.0505 17.3057 20.0505C17.2243 20.0505 17.1445 20.0375 17.0664 20.0115C16.9915 19.9854 16.9264 19.9513 16.8711 19.9089C16.7441 19.8145 16.6807 19.7153 16.6807 19.6111C16.6807 19.5037 16.7148 19.3588 16.7832 19.1765C16.8548 18.991 16.9427 18.7843 17.0469 18.5564L17.7305 17.1111C17.9746 16.574 18.0967 16.2338 18.0967 16.0906C18.0967 15.9441 18.0299 15.8708 17.8965 15.8708ZM18.3799 17.2478C18.3831 17.2478 18.3848 17.2462 18.3848 17.2429L18.3896 17.2332C18.3831 17.2397 18.3799 17.2445 18.3799 17.2478Z" fill="black"/>
<path d="M13.9902 13.8054L14.1348 13.9437L14.1377 13.9406L13.9902 13.8054ZM13.7461 13.991L13.8356 14.1699L13.8405 14.1673L13.7461 13.991ZM13.458 14.0789L13.4773 14.278L13.4836 14.2772L13.458 14.0789ZM13.1699 14.03L13.0832 14.2102L13.0857 14.2114L13.1699 14.03ZM12.9404 13.8494L13.0941 13.7213L13.0921 13.719L12.9404 13.8494ZM12.8086 12.9851L12.6412 12.8757L12.6401 12.8773L12.8086 12.9851ZM13.0137 12.78L13.1215 12.9485L13.1222 12.948L13.0137 12.78ZM13.7754 12.658L13.7249 12.8515L13.7269 12.852L13.7754 12.658ZM13.9902 12.7556L13.8755 12.9195L13.8785 12.9215L13.9902 12.7556ZM14.1611 13.5369L13.9779 13.4567L13.9767 13.4595L14.1611 13.5369ZM12.916 19.7087L13.0679 19.8389L13.0681 19.8386L12.916 19.7087ZM11.3535 19.5916L11.5354 19.5083L11.5335 19.5043L11.3535 19.5916ZM11.3535 18.6931L11.1616 18.6369L11.161 18.6391L11.3535 18.6931ZM11.5537 18.1023L11.3674 18.0295L11.3668 18.0311L11.5537 18.1023ZM11.8174 17.4724L12.0001 17.5539L12.0017 17.55L11.8174 17.4724ZM12.0762 16.8572L12.2605 16.9347L12.2611 16.9333L12.0762 16.8572ZM12.3105 15.6609L12.139 15.7638L12.1432 15.7706L12.1478 15.7771L12.3105 15.6609ZM12.2129 15.5486L12.3305 15.3868L12.3276 15.3847L12.2129 15.5486ZM12.1152 15.4802L12.2299 15.3164L12.1152 15.4802ZM12.1299 15.197L11.9793 15.0652L11.9747 15.0709L12.1299 15.197ZM12.3057 15.0603L12.2146 14.8822L12.2099 14.8847L12.3057 15.0603ZM13.3066 16.3298L13.4918 16.4055L13.492 16.4049L13.3066 16.3298ZM12.916 17.238L12.7346 17.1537L12.7326 17.1583L12.916 17.238ZM12.623 17.9119L12.4396 17.8321L12.4396 17.8322L12.623 17.9119ZM13.8457 13.6672C13.7886 13.7268 13.7242 13.7758 13.6516 13.8147L13.8405 14.1673C13.9503 14.1085 14.0486 14.0337 14.1348 13.9437L13.8457 13.6672ZM13.6567 13.8121C13.5855 13.8476 13.5111 13.8704 13.4324 13.8805L13.4836 14.2772C13.6068 14.2613 13.7244 14.2254 13.8355 14.1699L13.6567 13.8121ZM13.4387 13.8798C13.373 13.8862 13.3127 13.8758 13.2541 13.8486L13.0857 14.2114C13.2095 14.2689 13.3412 14.2911 13.4773 14.2779L13.4387 13.8798ZM13.2567 13.8498C13.1957 13.8204 13.1417 13.7784 13.0941 13.7213L12.7868 13.9774C12.8694 14.0765 12.9684 14.155 13.0832 14.2102L13.2567 13.8498ZM13.0921 13.719C12.974 13.5816 12.9305 13.4618 12.9305 13.3562H12.5305C12.5305 13.5827 12.627 13.7916 12.7888 13.9798L13.0921 13.719ZM12.9305 13.3562C12.9305 13.2042 12.9556 13.1265 12.977 13.0929L12.6401 12.8773C12.5574 13.0065 12.5305 13.1762 12.5305 13.3562H12.9305ZM12.976 13.0946C13.0166 13.0325 13.065 12.9846 13.1215 12.9485L12.9059 12.6116C12.7996 12.6796 12.7113 12.7685 12.6412 12.8757L12.976 13.0946ZM13.1222 12.948C13.2574 12.8607 13.3665 12.8287 13.4531 12.8287V12.4287C13.2664 12.4287 13.0824 12.4975 12.9052 12.612L13.1222 12.948ZM13.4531 12.8287C13.5874 12.8287 13.6747 12.8384 13.7249 12.8515L13.8259 12.4644C13.7263 12.4385 13.5988 12.4287 13.4531 12.4287V12.8287ZM13.7269 12.852C13.7816 12.8657 13.8307 12.8881 13.8755 12.9195L14.1049 12.5918C14.0195 12.532 13.9254 12.4893 13.8239 12.4639L13.7269 12.852ZM13.8785 12.9215C13.9973 13.0015 14.0295 13.0772 14.0295 13.1511H14.4295C14.4295 12.9126 14.3022 12.7246 14.102 12.5897L13.8785 12.9215ZM14.0295 13.1511C14.0295 13.2855 14.0093 13.3849 13.9779 13.4567L14.3444 13.617C14.4041 13.4805 14.4295 13.3227 14.4295 13.1511H14.0295ZM13.9767 13.4595C13.943 13.5399 13.8983 13.6097 13.8428 13.6703L14.1377 13.9406C14.2254 13.8449 14.2946 13.7357 14.3456 13.6142L13.9767 13.4595ZM12.9893 19.2886C12.9889 19.2886 12.9792 19.2886 12.9649 19.2823C12.9494 19.2756 12.9355 19.2646 12.9256 19.2516C12.9165 19.2397 12.9144 19.231 12.9145 19.2314C12.9147 19.2321 12.9162 19.2391 12.9162 19.2546H13.3162C13.3162 19.1795 13.3028 19.0864 13.2433 19.0086C13.1761 18.9207 13.0789 18.8886 12.9893 18.8886V19.2886ZM12.9162 19.2546C12.9162 19.3374 12.8788 19.4443 12.7639 19.5788L13.0681 19.8386C13.2201 19.6606 13.3162 19.4648 13.3162 19.2546H12.9162ZM12.7642 19.5786C12.6108 19.7576 12.4066 19.8505 12.1299 19.8505V20.2505C12.5108 20.2505 12.8306 20.1157 13.0679 19.8389L12.7642 19.5786ZM12.1299 19.8505C11.9678 19.8505 11.846 19.8178 11.7544 19.7636C11.6643 19.7104 11.5905 19.6288 11.5354 19.5084L11.1716 19.6748C11.2565 19.8603 11.3821 20.0082 11.5508 20.108C11.718 20.2068 11.9143 20.2505 12.1299 20.2505V19.8505ZM11.5335 19.5043C11.4978 19.4306 11.4754 19.3319 11.4754 19.2009H11.0754C11.0754 19.3759 11.1051 19.5376 11.1736 19.6788L11.5335 19.5043ZM11.4754 19.2009C11.4754 19.0702 11.4977 18.9195 11.5461 18.7472L11.161 18.6391C11.1052 18.8379 11.0754 19.0256 11.0754 19.2009H11.4754ZM11.5454 18.7494C11.5991 18.5661 11.6641 18.3742 11.7406 18.1735L11.3668 18.0311C11.287 18.2405 11.2186 18.4425 11.1616 18.6369L11.5454 18.7494ZM11.74 18.1751C11.8202 17.9698 11.9069 17.7627 12 17.5539L11.6347 17.3909C11.5391 17.6053 11.45 17.8182 11.3674 18.0295L11.74 18.1751ZM12.0017 17.55L12.2605 16.9347L11.8918 16.7796L11.633 17.3949L12.0017 17.55ZM12.2611 16.9333C12.3567 16.701 12.4299 16.5046 12.4795 16.3454C12.5274 16.1918 12.5594 16.0547 12.5594 15.949H12.1594C12.1594 15.9897 12.1442 16.0772 12.0976 16.2264C12.0529 16.3699 11.9845 16.5544 11.8912 16.7811L12.2611 16.9333ZM12.5594 15.949C12.5594 15.8695 12.555 15.7967 12.5444 15.7337C12.5344 15.6748 12.5157 15.604 12.4733 15.5446L12.1478 15.7771C12.1379 15.7633 12.1437 15.7634 12.15 15.8005C12.1556 15.8335 12.1594 15.8819 12.1594 15.949H12.5594ZM12.482 15.558C12.4427 15.4924 12.3933 15.4325 12.3305 15.3868L12.0953 15.7103C12.1041 15.7168 12.1198 15.7317 12.139 15.7638L12.482 15.558ZM12.3276 15.3847L12.2299 15.3164L12.0005 15.6441L12.0982 15.7124L12.3276 15.3847ZM12.2299 15.3164C12.2468 15.3282 12.2578 15.3438 12.2632 15.3569C12.2678 15.368 12.2664 15.372 12.2664 15.363H11.8664C11.8664 15.4559 11.8953 15.5704 12.0005 15.6441L12.2299 15.3164ZM12.2664 15.363C12.2664 15.357 12.2673 15.345 12.2851 15.3231L11.9747 15.0709C11.9078 15.1532 11.8664 15.2519 11.8664 15.363H12.2664ZM12.2804 15.3287C12.308 15.2972 12.3469 15.2656 12.4014 15.2359L12.2099 14.8847C12.1212 14.9331 12.043 14.9926 11.9794 15.0653L12.2804 15.3287ZM12.3967 15.2384C12.5102 15.1804 12.6488 15.148 12.8184 15.148V14.748C12.5973 14.748 12.3941 14.7905 12.2146 14.8822L12.3967 15.2384ZM12.8184 15.148C13.0467 15.148 13.1872 15.179 13.2639 15.2192C13.2993 15.2377 13.315 15.255 13.3225 15.2669C13.3295 15.2779 13.3361 15.2945 13.3361 15.324H13.7361C13.7361 15.2282 13.7128 15.1351 13.66 15.0521C13.6077 14.9699 13.5337 14.9089 13.4495 14.8648C13.2869 14.7797 13.0686 14.748 12.8184 14.748V15.148ZM13.3361 15.324C13.3361 15.5833 13.2681 15.8923 13.1213 16.2547L13.492 16.4049C13.6512 16.0121 13.7361 15.6506 13.7361 15.324H13.3361ZM13.1215 16.2542C12.9691 16.6271 12.8402 16.9266 12.7346 17.1537L13.0974 17.3223C13.2067 17.0872 13.3382 16.7813 13.4918 16.4055L13.1215 16.2542ZM12.7326 17.1583L12.4396 17.8321L12.8065 17.9916L13.0994 17.3178L12.7326 17.1583ZM12.4396 17.8322C12.2254 18.3256 12.1008 18.7169 12.1008 18.9812H12.5008C12.5008 18.8094 12.591 18.4877 12.8065 17.9915L12.4396 17.8322ZM12.1008 18.9812C12.1008 19.0836 12.1265 19.1972 12.2131 19.2838C12.2996 19.3703 12.4132 19.396 12.5156 19.396V18.996C12.4959 18.996 12.4868 18.9935 12.4849 18.9929C12.4841 18.9926 12.4853 18.9929 12.4876 18.9943C12.49 18.9958 12.493 18.9979 12.4959 19.0009C12.4989 19.0039 12.5011 19.0068 12.5025 19.0092C12.5039 19.0116 12.5042 19.0127 12.5039 19.0119C12.5033 19.0101 12.5008 19.0009 12.5008 18.9812H12.1008ZM12.5156 19.396C12.6667 19.396 12.8095 19.3777 12.9225 19.3212L12.7436 18.9634C12.7133 18.9786 12.6445 18.996 12.5156 18.996V19.396ZM12.9225 19.3212C12.9536 19.3057 12.9759 19.2963 12.9908 19.2912C12.9981 19.2887 13.0018 19.2878 13.0026 19.2876C13.0037 19.2874 12.9987 19.2886 12.9893 19.2886V18.8886C12.9407 18.8886 12.8954 18.901 12.8608 18.9129C12.8235 18.9257 12.7841 18.9432 12.7436 18.9634L12.9225 19.3212ZM16.8613 16.6912L16.7139 16.556L16.711 16.5592L16.8613 16.6912ZM16.0459 17.6531L16.2029 17.777L16.203 17.7769L16.0459 17.6531ZM15.6064 18.2097L15.4495 18.0858L15.4381 18.1002L15.4295 18.1164L15.6064 18.2097ZM15.1621 19.1033L15.3434 19.1877L15.3444 19.1857L15.1621 19.1033ZM14.8984 19.6697L15.0782 19.7575L15.0798 19.7541L14.8984 19.6697ZM14.7178 19.9675L14.5683 19.8347L14.5678 19.8352L14.7178 19.9675ZM14.2637 20.0017L14.338 19.816L14.3339 19.8144L14.2637 20.0017ZM14.0586 19.8845L13.9298 20.0375L13.9306 20.0382L14.0586 19.8845ZM13.9805 19.2546L14.1594 19.3441L14.1615 19.3396L13.9805 19.2546ZM14.166 18.8591L13.9871 18.7697L13.985 18.7742L14.166 18.8591ZM14.3711 18.4099L14.5549 18.4887L14.5562 18.4856L14.3711 18.4099ZM14.6445 17.741L14.8297 17.8166L14.8302 17.8152L14.6445 17.741ZM15.0742 15.5486L15.1925 15.3873L15.1889 15.3847L15.0742 15.5486ZM14.9766 15.4802L15.0913 15.3164L14.9766 15.4802ZM14.9912 15.197L14.8406 15.0652L14.836 15.0709L14.9912 15.197ZM15.167 15.0603L15.0759 14.8822L15.0712 14.8847L15.167 15.0603ZM15.958 14.9968L15.8862 15.1835L15.958 14.9968ZM16.1777 15.1287L16.3132 14.9815L16.3111 14.9796L16.1777 15.1287ZM16.3145 15.8611L16.5079 15.912L16.5082 15.9108L16.3145 15.8611ZM16.1924 16.2419L16.3791 16.3137L16.3796 16.3122L16.1924 16.2419ZM16.0361 16.613L16.2175 16.6974L16.2179 16.6965L16.0361 16.613ZM15.792 17.1306L15.6131 17.0412L15.6112 17.045L15.792 17.1306ZM15.7676 17.199L15.9238 17.3239L15.9259 17.3212L15.7676 17.199ZM16.8418 15.8318L16.6905 15.7009L16.6902 15.7013L16.8418 15.8318ZM17.4277 15.2361L17.308 15.0758L17.306 15.0774L17.4277 15.2361ZM18.5459 17.033L18.3556 16.9714L18.7053 17.1537L18.5459 17.033ZM19.2637 16.0857L19.1101 15.9572L19.1043 15.9649L19.2637 16.0857ZM19.6641 15.6072L19.5147 15.474L19.5107 15.4788L19.6641 15.6072ZM20.2988 15.075L20.2146 14.8935L20.2988 15.075ZM21.085 15.0115L21.0135 15.1983L21.0153 15.199L21.085 15.0115ZM21.373 15.1921L21.2316 15.3336L21.2345 15.3364L21.373 15.1921ZM21.1387 17.2673L21.3162 17.3595L21.3169 17.3581L21.1387 17.2673ZM20.8848 17.78L20.7039 17.6947L20.703 17.6966L20.8848 17.78ZM21.1143 19.1082L21.0228 18.9303L21.0207 18.9314L21.1143 19.1082ZM20.9922 19.8503L20.8821 19.6834L20.8806 19.6844L20.9922 19.8503ZM19.7764 19.8064L19.9205 19.6678L19.9202 19.6675L19.7764 19.8064ZM19.8643 17.6287L20.0472 17.7094L20.0477 17.7084L19.8643 17.6287ZM20.1572 17.0134L19.9808 16.9192L19.9802 16.9203L20.1572 17.0134ZM20.3867 16.5642L20.5677 16.6494L20.5686 16.6474L20.3867 16.5642ZM19.3955 16.7449L19.238 16.6216L19.2365 16.6236L19.3955 16.7449ZM18.6777 17.7214L18.8424 17.835L18.8437 17.833L18.6777 17.7214ZM18.3408 18.2097L18.1762 18.0961L18.1695 18.1059L18.1639 18.1164L18.3408 18.2097ZM17.9062 19.1033L18.0894 19.1838L18.0903 19.1814L17.9062 19.1033ZM17.6572 19.6697L17.8402 19.7505L17.8403 19.7502L17.6572 19.6697ZM17.4961 19.9675L17.6505 20.0947L17.654 20.0903L17.4961 19.9675ZM17.0664 20.0115L17.0007 20.2004L17.0032 20.2012L17.0664 20.0115ZM16.8711 19.9089L16.9926 19.75L16.9904 19.7484L16.8711 19.9089ZM16.7832 19.1765L16.5966 19.1045L16.5959 19.1063L16.7832 19.1765ZM17.0469 18.5564L16.8661 18.4709L16.865 18.4732L17.0469 18.5564ZM17.7305 17.1111L17.9113 17.1966L17.9125 17.1938L17.7305 17.1111ZM18.3799 17.2478H18.1799V17.4478H18.3799V17.2478ZM18.3848 17.2429L18.2059 17.1535L18.1848 17.1957V17.2429H18.3848ZM18.3896 17.2332L18.5685 17.3226L18.2482 17.0917L18.3896 17.2332ZM17.8965 15.6708C17.8043 15.6708 17.7145 15.7031 17.6344 15.7441C17.552 15.7863 17.4641 15.8461 17.3719 15.9192C17.1873 16.0654 16.9676 16.2793 16.7139 16.556L17.0088 16.8263C17.2564 16.5562 17.4598 16.3599 17.6203 16.2327C17.7006 16.1691 17.7658 16.1263 17.8168 16.1001C17.842 16.0872 17.8615 16.0795 17.8758 16.0752C17.8903 16.0709 17.8966 16.0708 17.8965 16.0708V15.6708ZM16.711 16.5592C16.3363 16.9861 16.0615 17.3101 15.8888 17.5293L16.203 17.7769C16.3688 17.5664 16.6377 17.2491 17.0116 16.8231L16.711 16.5592ZM15.8889 17.5291L15.4495 18.0858L15.7634 18.3336L16.2029 17.777L15.8889 17.5291ZM15.4295 18.1164C15.2397 18.4764 15.0896 18.7781 14.9799 19.0209L15.3444 19.1857C15.4495 18.9531 15.5955 18.6592 15.7834 18.303L15.4295 18.1164ZM14.9808 19.0189L14.7171 19.5853L15.0798 19.7541L15.3434 19.1877L14.9808 19.0189ZM14.7187 19.5819C14.6521 19.7183 14.6015 19.7973 14.5683 19.8347L14.8673 20.1004C14.9382 20.0206 15.008 19.901 15.0782 19.7574L14.7187 19.5819ZM14.5678 19.8352C14.5642 19.8393 14.5552 19.8505 14.5127 19.8505V20.2505C14.646 20.2505 14.7737 20.2065 14.8677 20.0999L14.5678 19.8352ZM14.5127 19.8505C14.4544 19.8505 14.3966 19.8395 14.338 19.816L14.1894 20.1874C14.2935 20.2291 14.4017 20.2505 14.5127 20.2505V19.8505ZM14.3339 19.8144C14.2748 19.7923 14.2264 19.764 14.1866 19.7309L13.9306 20.0382C14.0079 20.1027 14.0963 20.1525 14.1934 20.189L14.3339 19.8144ZM14.1874 19.7315C14.094 19.6529 14.073 19.5904 14.073 19.5427H13.673C13.673 19.7424 13.7758 19.9078 13.9298 20.0375L14.1874 19.7315ZM14.073 19.5427C14.073 19.5528 14.0715 19.555 14.0739 19.5452C14.076 19.5367 14.0801 19.5232 14.0873 19.504C14.1017 19.4652 14.1252 19.4124 14.1594 19.3441L13.8016 19.1652C13.7641 19.2401 13.7339 19.3069 13.7125 19.3642C13.6934 19.4155 13.673 19.4802 13.673 19.5427H14.073ZM14.1615 19.3396L14.3471 18.9441L13.985 18.7742L13.7994 19.1697L14.1615 19.3396ZM14.3449 18.9486C14.4059 18.8266 14.476 18.673 14.5549 18.4887L14.1873 18.3311C14.11 18.5114 14.0433 18.6573 13.9871 18.7697L14.3449 18.9486ZM14.5562 18.4856L14.8297 17.8166L14.4594 17.6653L14.186 18.3342L14.5562 18.4856ZM14.8302 17.8152C15.0233 17.3327 15.1695 16.9321 15.2677 16.6148C15.3639 16.3041 15.4207 16.0536 15.4207 15.8806H15.0207C15.0207 15.9876 14.9814 16.1871 14.8856 16.4965C14.7918 16.7994 14.6499 17.189 14.4588 17.6667L14.8302 17.8152ZM15.4207 15.8806C15.4207 15.684 15.3537 15.5056 15.1925 15.3873L14.9559 15.7099C14.99 15.7348 15.0207 15.7777 15.0207 15.8806H15.4207ZM15.1889 15.3847L15.0913 15.3164L14.8619 15.6441L14.9595 15.7124L15.1889 15.3847ZM15.0913 15.3164C15.1081 15.3282 15.1191 15.3438 15.1246 15.3569C15.1292 15.368 15.1277 15.372 15.1277 15.363H14.7277C14.7277 15.4559 14.7566 15.5704 14.8619 15.6441L15.0913 15.3164ZM15.1277 15.363C15.1277 15.357 15.1286 15.345 15.1464 15.3231L14.836 15.0709C14.7691 15.1532 14.7277 15.2519 14.7277 15.363H15.1277ZM15.1417 15.3287C15.1693 15.2972 15.2082 15.2656 15.2628 15.2359L15.0712 14.8847C14.9825 14.9331 14.9043 14.9926 14.8407 15.0653L15.1417 15.3287ZM15.258 15.2384C15.3798 15.1761 15.4953 15.148 15.6064 15.148V14.748C15.4246 14.748 15.2471 14.7947 15.076 14.8822L15.258 15.2384ZM15.6064 15.148C15.7455 15.148 15.8346 15.1636 15.8862 15.1835L16.0298 14.8102C15.9121 14.7649 15.7669 14.748 15.6064 14.748V15.148ZM15.8862 15.1835C15.9503 15.2082 16.0022 15.24 16.0444 15.2777L16.3111 14.9796C16.2296 14.9067 16.135 14.8506 16.0298 14.8102L15.8862 15.1835ZM16.0422 15.2758C16.1402 15.366 16.1633 15.4352 16.1633 15.4851H16.5633C16.5633 15.2876 16.4627 15.1192 16.3132 14.9816L16.0422 15.2758ZM16.1633 15.4851C16.1633 15.5911 16.1494 15.6997 16.1207 15.8114L16.5082 15.9108C16.5447 15.7685 16.5633 15.6265 16.5633 15.4851H16.1633ZM16.121 15.8102C16.0903 15.9268 16.0518 16.0473 16.0051 16.1717L16.3796 16.3122C16.4306 16.1762 16.4735 16.0428 16.5079 15.912L16.121 15.8102ZM16.0057 16.1701C15.9584 16.2933 15.9079 16.413 15.8544 16.5295L16.2179 16.6965C16.275 16.5721 16.3287 16.4445 16.3791 16.3137L16.0057 16.1701ZM15.8548 16.5287C15.7241 16.8097 15.6441 16.9792 15.6131 17.0412L15.9709 17.2201C16.005 17.1518 16.0878 16.9763 16.2175 16.6974L15.8548 16.5287ZM15.6112 17.045C15.5971 17.0748 15.5835 17.1046 15.5756 17.1268C15.5736 17.1324 15.5696 17.144 15.5665 17.1581C15.5651 17.1645 15.5621 17.1792 15.5616 17.1978C15.5614 17.2054 15.5584 17.266 15.6018 17.3239C15.629 17.3601 15.6698 17.3887 15.7198 17.3995C15.7649 17.4093 15.8022 17.4013 15.8234 17.3945C15.8619 17.3822 15.8867 17.3611 15.8925 17.3562C15.9093 17.3421 15.9206 17.3278 15.9238 17.3239L15.6114 17.074C15.6124 17.0728 15.6145 17.0702 15.6175 17.0669C15.6201 17.0641 15.6261 17.0577 15.6349 17.0503C15.6397 17.0462 15.6637 17.0256 15.7015 17.0135C15.7224 17.0068 15.7595 16.9989 15.8043 17.0086C15.8541 17.0193 15.8948 17.0478 15.9218 17.0839C15.9649 17.1413 15.9617 17.2012 15.9615 17.2078C15.9611 17.2254 15.9583 17.2387 15.9572 17.2435C15.9559 17.2498 15.9545 17.2544 15.9538 17.2566C15.9531 17.259 15.9525 17.2607 15.9523 17.2614C15.9518 17.2627 15.9528 17.2599 15.9569 17.2506C15.9606 17.2421 15.9658 17.2308 15.9727 17.2162L15.6112 17.045ZM15.9259 17.3212C16.5234 16.5474 16.8773 16.0971 16.9934 15.9622L16.6902 15.7013C16.5654 15.8464 16.2032 16.3076 15.6093 17.0767L15.9259 17.3212ZM16.993 15.9626C17.2426 15.6741 17.4268 15.4889 17.5495 15.3947L17.306 15.0774C17.1487 15.1981 16.9423 15.41 16.6905 15.7009L16.993 15.9626ZM17.5474 15.3963C17.7838 15.2198 17.985 15.148 18.1553 15.148V14.748C17.8698 14.748 17.586 14.8682 17.3081 15.0758L17.5474 15.3963ZM18.1553 15.148C18.3417 15.148 18.4697 15.2039 18.5624 15.3009L18.8517 15.0247C18.6709 14.8353 18.4311 14.748 18.1553 14.748V15.148ZM18.5624 15.3009C18.6572 15.4003 18.7121 15.5362 18.7121 15.7292H19.1121C19.1121 15.4535 19.0303 15.2119 18.8517 15.0247L18.5624 15.3009ZM18.7121 15.7292C18.7121 15.9021 18.6678 16.1182 18.5687 16.3814L18.943 16.5224C19.0523 16.2323 19.1121 15.9665 19.1121 15.7292H18.7121ZM18.5687 16.3814C18.4646 16.658 18.393 16.8557 18.3556 16.9714L18.7362 17.0945C18.7704 16.9889 18.8388 16.7992 18.943 16.5224L18.5687 16.3814ZM18.7053 17.1537L19.4231 16.2065L19.1043 15.9649L18.3865 16.9122L18.7053 17.1537ZM19.4171 16.214L19.8174 15.7355L19.5107 15.4788L19.1103 15.9573L19.4171 16.214ZM19.8133 15.7403C20.0483 15.4767 20.238 15.3237 20.3831 15.2564L20.2146 14.8935C19.9951 14.9955 19.7616 15.1972 19.5148 15.4741L19.8133 15.7403ZM20.3831 15.2564C20.5561 15.176 20.6727 15.148 20.7432 15.148V14.748C20.5858 14.748 20.4061 14.8046 20.2146 14.8935L20.3831 15.2564ZM20.7432 15.148C20.8357 15.148 20.9254 15.1646 21.0135 15.1983L21.1564 14.8247C21.0232 14.7737 20.885 14.748 20.7432 14.748V15.148ZM21.0153 15.199C21.105 15.2323 21.1758 15.2777 21.2316 15.3336L21.5145 15.0507C21.414 14.9503 21.2928 14.8753 21.1546 14.824L21.0153 15.199ZM21.2345 15.3364C21.3554 15.4526 21.4221 15.609 21.4221 15.8269H21.8221C21.8221 15.5174 21.7227 15.2507 21.5116 15.0479L21.2345 15.3364ZM21.4221 15.8269C21.4221 16.0493 21.3709 16.2824 21.2632 16.5278L21.6294 16.6886C21.7561 16.4 21.8221 16.1123 21.8221 15.8269H21.4221ZM21.2632 16.5278C21.1468 16.7927 21.046 17.0087 20.9605 17.1765L21.3169 17.3581C21.4071 17.1809 21.5114 16.9574 21.6294 16.6886L21.2632 16.5278ZM20.9612 17.1752C20.8721 17.3467 20.7863 17.5199 20.7039 17.6947L21.0657 17.8654C21.1459 17.6951 21.2295 17.5265 21.3162 17.3595L20.9612 17.1752ZM20.703 17.6966C20.4649 18.2153 20.3283 18.6343 20.3283 18.9324H20.7283C20.7283 18.7292 20.8294 18.38 21.0665 17.8635L20.703 17.6966ZM20.3283 18.9324C20.3283 19.0423 20.3499 19.1618 20.427 19.2565C20.5105 19.3589 20.6287 19.396 20.7432 19.396V18.996C20.7274 18.996 20.7228 18.9936 20.7249 18.9945C20.7282 18.9958 20.7334 18.9992 20.7371 19.0038C20.7401 19.0075 20.7378 19.0067 20.7348 18.9953C20.7316 18.9835 20.7283 18.9634 20.7283 18.9324H20.3283ZM20.7432 19.396C20.9094 19.396 21.0657 19.3601 21.2078 19.2849L21.0207 18.9314C20.9414 18.9734 20.8503 18.996 20.7432 18.996V19.396ZM21.2057 19.286C21.2601 19.2581 21.3006 19.2393 21.3289 19.2279C21.3431 19.2223 21.3515 19.2196 21.3553 19.2185C21.3613 19.2168 21.352 19.2203 21.334 19.2203V18.8203C21.2751 18.8203 21.2163 18.8422 21.1804 18.8565C21.1354 18.8745 21.0824 18.8997 21.0228 18.9303L21.2057 19.286ZM21.334 19.2203C21.3373 19.2203 21.3031 19.221 21.2695 19.1873C21.2358 19.1537 21.2365 19.1195 21.2365 19.1228H21.6365C21.6365 19.0578 21.6201 18.9723 21.5523 18.9045C21.4845 18.8367 21.399 18.8203 21.334 18.8203V19.2203ZM21.2365 19.1228C21.2365 19.3297 21.1366 19.5156 20.8821 19.6834L21.1023 20.0173C21.4402 19.7945 21.6365 19.4954 21.6365 19.1228H21.2365ZM20.8806 19.6844C20.7012 19.805 20.5576 19.8505 20.4453 19.8505V20.2505C20.665 20.2505 20.8861 20.1626 21.1038 20.0163L20.8806 19.6844ZM20.4453 19.8505C20.296 19.8505 20.1913 19.8323 20.122 19.8054L19.9776 20.1785C20.1101 20.2297 20.2691 20.2505 20.4453 20.2505V19.8505ZM20.122 19.8054C20.0505 19.7778 19.9834 19.7332 19.9205 19.6678L19.6322 19.945C19.732 20.0489 19.8472 20.128 19.9776 20.1785L20.122 19.8054ZM19.9202 19.6675C19.777 19.5191 19.7029 19.3343 19.7029 19.0984H19.3029C19.3029 19.4289 19.4112 19.7161 19.6325 19.9453L19.9202 19.6675ZM19.7029 19.0984C19.7029 18.832 19.7366 18.5913 19.8018 18.3748L19.4189 18.2594C19.3409 18.5182 19.3029 18.7983 19.3029 19.0984H19.7029ZM19.8018 18.3748C19.8712 18.1449 19.953 17.9231 20.0472 17.7094L19.6813 17.5479C19.5802 17.777 19.4928 18.0142 19.4189 18.2594L19.8018 18.3748ZM20.0477 17.7084C20.1437 17.4876 20.2392 17.2871 20.3342 17.1066L19.9802 16.9203C19.8799 17.1109 19.7802 17.3205 19.6808 17.5489L20.0477 17.7084ZM20.3336 17.1077C20.4351 16.9178 20.5135 16.7646 20.5677 16.6494L20.2058 16.479C20.1558 16.5852 20.0811 16.7315 19.9808 16.9192L20.3336 17.1077ZM20.5686 16.6474C20.6729 16.4192 20.743 16.2163 20.743 16.0613H20.343C20.343 16.1211 20.3089 16.2535 20.2048 16.4811L20.5686 16.6474ZM20.743 16.0613C20.743 15.9644 20.717 15.8556 20.6308 15.7735C20.5464 15.6933 20.4379 15.6708 20.3428 15.6708V16.0708C20.3609 16.0708 20.3689 16.0731 20.3699 16.0734C20.3701 16.0734 20.3633 16.0712 20.3551 16.0634C20.3512 16.0597 20.3481 16.0557 20.3457 16.0519C20.3433 16.0482 20.3421 16.0454 20.3417 16.0441C20.341 16.042 20.343 16.0465 20.343 16.0613H20.743ZM20.3428 15.6708C20.2471 15.6708 20.1577 15.709 20.0827 15.7534C20.0048 15.7996 19.9231 15.8643 19.8385 15.9424C19.669 16.0987 19.4685 16.3269 19.238 16.6217L19.553 16.8681C19.7783 16.5801 19.9635 16.3713 20.1097 16.2363C20.183 16.1688 20.2417 16.1242 20.2867 16.0975C20.3346 16.0691 20.3506 16.0708 20.3428 16.0708V15.6708ZM19.2365 16.6236C18.8914 17.0761 18.6489 17.4058 18.5117 17.6099L18.8437 17.833C18.9735 17.6399 19.2095 17.3186 19.5545 16.8662L19.2365 16.6236ZM18.5131 17.6079L18.1762 18.0961L18.5054 18.3233L18.8424 17.835L18.5131 17.6079ZM18.1639 18.1164C17.9738 18.477 17.8261 18.7803 17.7222 19.0251L18.0903 19.1814C18.1882 18.951 18.3303 18.6586 18.5177 18.303L18.1639 18.1164ZM17.7232 19.0228L17.4741 19.5892L17.8403 19.7502L18.0893 19.1838L17.7232 19.0228ZM17.4743 19.5888C17.4136 19.7262 17.3679 19.8065 17.3382 19.8447L17.654 20.0903C17.7154 20.0113 17.7771 19.8931 17.8402 19.7505L17.4743 19.5888ZM17.3417 19.8404C17.3382 19.8446 17.3362 19.8457 17.3344 19.8464C17.3319 19.8475 17.3236 19.8505 17.3057 19.8505V20.2505C17.4377 20.2505 17.5615 20.2027 17.6505 20.0947L17.3417 19.8404ZM17.3057 19.8505C17.246 19.8505 17.1876 19.8411 17.1297 19.8217L17.0032 20.2012C17.1014 20.234 17.2025 20.2505 17.3057 20.2505V19.8505ZM17.1321 19.8226C17.0746 19.8026 17.0289 19.7778 16.9926 19.7501L16.7496 20.0678C16.824 20.1247 16.9085 20.1683 17.0007 20.2004L17.1321 19.8226ZM16.9904 19.7484C16.887 19.6716 16.8807 19.6244 16.8807 19.6111H16.4807C16.4807 19.8061 16.6012 19.9575 16.7518 20.0694L16.9904 19.7484ZM16.8807 19.6111C16.8807 19.5398 16.9048 19.4218 16.9705 19.2467L16.5959 19.1063C16.5249 19.2958 16.4807 19.4675 16.4807 19.6111H16.8807ZM16.9698 19.2485C17.0396 19.0676 17.1259 18.8646 17.2288 18.6395L16.865 18.4732C16.7595 18.7039 16.67 18.9144 16.5966 19.1045L16.9698 19.2485ZM17.2277 18.6419L17.9113 17.1966L17.5497 17.0256L16.8661 18.4709L17.2277 18.6419ZM17.9125 17.1938C18.0357 16.923 18.1297 16.6981 18.1934 16.5207C18.2538 16.3522 18.2967 16.2011 18.2967 16.0906H17.8967C17.8967 16.1232 17.8785 16.2139 17.8169 16.3856C17.7585 16.5483 17.6694 16.7621 17.5484 17.0283L17.9125 17.1938ZM18.2967 16.0906C18.2967 15.9909 18.2744 15.8788 18.1945 15.7911C18.1114 15.6999 17.9991 15.6708 17.8965 15.6708V16.0708C17.9121 16.0708 17.9171 16.073 17.9154 16.0724C17.9143 16.072 17.9118 16.071 17.9085 16.0688C17.9051 16.0666 17.9018 16.0637 17.8988 16.0605C17.8925 16.0536 17.8917 16.049 17.8928 16.0526C17.8941 16.0568 17.8967 16.0685 17.8967 16.0906H18.2967ZM18.3799 17.4478C18.4123 17.4478 18.4734 17.4396 18.525 17.388C18.5765 17.3365 18.5848 17.2754 18.5848 17.2429H18.1848C18.1848 17.2137 18.1922 17.1551 18.2421 17.1052C18.292 17.0552 18.3507 17.0478 18.3799 17.0478V17.4478ZM18.5637 17.3324L18.5685 17.3226L18.2108 17.1437L18.2059 17.1535L18.5637 17.3324ZM18.2482 17.0917C18.2403 17.0997 18.2277 17.113 18.2159 17.1308C18.2076 17.1432 18.1799 17.1861 18.1799 17.2478H18.5799C18.5799 17.2796 18.5722 17.3044 18.5662 17.3193C18.5601 17.3347 18.5532 17.346 18.5487 17.3526C18.5402 17.3655 18.5325 17.3731 18.5311 17.3746L18.2482 17.0917Z" fill="black" mask="url(#path-3-outside-2_459_2)"/>
</svg>
